<svg width="46" height="28" fill="none" xmlns="http://www.w3.org/2000/svg"><g id="Frame" clip-path="url('#clip0_13_84')"><g id="Group"><path id="Vector" d="M0 0h1.405v16.681h4.194V0h1.405v28H5.599v-9.914H1.405V28H0V0Z" fill="url('#paint0_linear_13_84')"/><path id="Vector_2" d="m17.391 0-3.482 18.086V28h-1.405v-9.914L9.002 0h1.286l2.928 15.078L16.125 0h1.266Z" fill="url('#paint1_linear_13_84')"/><path id="Vector_3" d="M23.604 28h-4.215V0h4.195a2.774 2.774 0 0 1 2.79 2.79v22.4c.02 1.524-1.227 2.81-2.77 2.81Zm-2.81-26.595v25.19h2.79c.752 0 1.404-.633 1.404-1.405V2.79c0-.752-.633-1.405-1.404-1.405h-2.79v.02Z" fill="url('#paint2_linear_13_84')"/><path id="Vector_4" d="M35.593 28H34.15l-2.473-9.914h-1.682V28h-1.405V0h4.195a2.774 2.774 0 0 1 2.79 2.79v12.486c0 1.405-1.089 2.593-2.474 2.75L35.593 28Zm-5.599-11.319h2.79c.752 0 1.404-.633 1.404-1.405V2.79c0-.752-.633-1.405-1.404-1.405h-2.79v15.296Z" fill="url('#paint3_linear_13_84')"/><path id="Vector_5" d="M39.827 18.086 38.857 28h-1.266l2.81-28h2.79l2.79 28h-1.267l-.97-9.914h-3.917Zm2.236-16.681h-.554L39.985 16.68h3.601L42.063 1.405Z" fill="url('#paint4_linear_13_84')"/></g></g><defs><linearGradient id="paint0_linear_13_84" x1="3.502" y1="0" x2="3.502" y2="28" gradientUnits="userSpaceOnUse"><stop stop-color="#C0B7E8"/><stop offset="1" stop-color="#8176AF"/></linearGradient><linearGradient id="paint1_linear_13_84" x1="13.197" y1="0" x2="13.197" y2="28" gradientUnits="userSpaceOnUse"><stop stop-color="#C0B7E8"/><stop offset="1" stop-color="#8176AF"/></linearGradient><linearGradient id="paint2_linear_13_84" x1="22.881" y1="0" x2="22.881" y2="28" gradientUnits="userSpaceOnUse"><stop stop-color="#C0B7E8"/><stop offset="1" stop-color="#8176AF"/></linearGradient><linearGradient id="paint3_linear_13_84" x1="32.091" y1="0" x2="32.091" y2="28" gradientUnits="userSpaceOnUse"><stop stop-color="#C0B7E8"/><stop offset="1" stop-color="#8176AF"/></linearGradient><linearGradient id="paint4_linear_13_84" x1="41.786" y1="0" x2="41.786" y2="28" gradientUnits="userSpaceOnUse"><stop stop-color="#C0B7E8"/><stop offset="1" stop-color="#8176AF"/></linearGradient><clipPath id="clip0_13_84"><path fill="#fff" d="M0 0h46v28H0z"/></clipPath></defs></svg>