<svg width="69" height="61" fill="none" xmlns="http://www.w3.org/2000/svg"><path id="Vector" d="M68.175 24.669c.904 4.49-4.641 3.294-4.641 3.294-2.32-5.623-6.034-5.099-6.034-5.099 2.907 1.826 3.127 3.378 3.127 3.378-7.743-4.72-18.271-.923-22.277.86-2.248-2.727-6.791-8.833-5.179-11.603 2.125-3.63 6.449-1.553 6.449-1.553 8.745-.126 8.256-2.811 8.256-2.811-2.32 1.552-9.16 0-9.16 0 5.936 0 8.452-2.078 8.452-2.078-4.422.945-9.356-3.105-9.356-3.105-1.807-7.953-10.161-4.574-10.161-4.574 5.227-.777 3.835 3.986 3.835 3.986-6.547 1.994-5.936 5.183-5.936 5.183 2.125-2.497 3.933-2.686 3.933-2.686-5.985 7.24-.22 17.311 1.49 19.934-3.127 1.868-10.455 5.98-13.753 4.554-4.226-1.826-1.807-5.54-1.807-5.54-.098-7.512-3.225-7.092-3.225-7.092 1.808 1.993 0 7.868 0 7.868 0-5.099-2.418-7.26-2.418-7.26 1.1 3.798-3.615 8.037-3.615 8.037C-3.103 29.915.83 37.09.83 37.09c-.904-4.49 4.64-3.295 4.64-3.295 2.321 5.624 6.034 5.1 6.034 5.1-2.906-1.826-3.126-3.379-3.126-3.379 8.183 4.994 19.492.462 22.912-1.133 2.296 2.833 6.571 8.666 4.983 11.373-2.125 3.63-6.448 1.553-6.448 1.553-8.745.084-8.257 2.77-8.257 2.77 2.32-1.553 9.16 0 9.16 0-5.935 0-8.451 2.077-8.451 2.077 4.42-.945 9.355 3.105 9.355 3.105 1.808 7.953 10.162 4.574 10.162 4.574-5.228.777-3.835-3.986-3.835-3.986 6.546-1.994 5.935-5.183 5.935-5.183-2.125 2.497-3.932 2.686-3.932 2.686 5.862-7.072.464-16.87-1.368-19.745 3.322-1.994 10.04-5.56 13.142-4.218 4.225 1.825 1.807 5.54 1.807 5.54.098 7.511 3.224 7.092 3.224 7.092-1.807-1.994 0-7.869 0-7.869 0 5.099 2.419 7.26 2.419 7.26-1.1-3.798 3.615-8.036 3.615-8.036 9.307-1.532 5.374-8.708 5.374-8.708Z" fill="url('#paint0_linear_13_79')"/><defs><linearGradient id="paint0_linear_13_79" x1="34.5" y1=".665" x2="34.5" y2="60.549" gradientUnits="userSpaceOnUse"><stop stop-color="#C0B7E8"/><stop offset="1" stop-color="#8176AF"/></linearGradient></defs></svg>