<svg aria-hidden="true" style="position: absolute; width: 0; height: 0; overflow: hidden;" version="1.1" xmlns="http://www.w3.org/2000/svg" xmlns:xlink="http://www.w3.org/1999/xlink">
<defs>
<symbol id="icon-Hamburger-Button" viewBox="0 0 41 32">
<path d="M2.286 0h36.044c1.262 0 2.286 1.023 2.286 2.286v0c0 1.262-1.023 2.286-2.286 2.286h-36.044c-1.262 0-2.286-1.023-2.286-2.286v0c0-1.262 1.023-2.286 2.286-2.286z"></path>
<path d="M2.286 27.429h36.044c1.262 0 2.286 1.023 2.286 2.286v0c0 1.262-1.023 2.286-2.286 2.286h-36.044c-1.262 0-2.286-1.023-2.286-2.286v0c0-1.262 1.023-2.286 2.286-2.286z"></path>
<path d="M13.363 13.714h24.967c1.262 0 2.286 1.023 2.286 2.286v0c0 1.262-1.023 2.286-2.286 2.286h-24.967c-1.262 0-2.286-1.023-2.286-2.286v0c0-1.262 1.023-2.286 2.286-2.286z"></path>
</symbol>
<symbol id="icon-Logo_icon" viewBox="0 0 36 32">
<path d="M35.764 12.941c0.474 2.356-2.435 1.728-2.435 1.728-1.217-2.95-3.165-2.675-3.165-2.675 1.525 0.958 1.64 1.772 1.64 1.772-4.062-2.477-9.585-0.484-11.687 0.451-1.179-1.431-3.562-4.634-2.717-6.087 1.115-1.904 3.383-0.815 3.383-0.815 4.588-0.066 4.331-1.475 4.331-1.475-1.217 0.815-4.805 0-4.805 0 3.114 0 4.434-1.090 4.434-1.090-2.319 0.495-4.908-1.629-4.908-1.629-0.948-4.172-5.331-2.4-5.331-2.4 2.742-0.407 2.012 2.091 2.012 2.091-3.434 1.046-3.114 2.719-3.114 2.719 1.115-1.31 2.063-1.409 2.063-1.409-3.139 3.798-0.115 9.081 0.782 10.457-1.64 0.98-5.485 3.137-7.214 2.389-2.217-0.958-0.948-2.906-0.948-2.906-0.051-3.941-1.691-3.721-1.691-3.721 0.948 1.046 0 4.128 0 4.128 0-2.675-1.269-3.809-1.269-3.809 0.577 1.992-1.897 4.216-1.897 4.216-4.857 0.815-2.793 4.579-2.793 4.579-0.474-2.356 2.435-1.728 2.435-1.728 1.217 2.95 3.165 2.675 3.165 2.675-1.525-0.958-1.64-1.772-1.64-1.772 4.293 2.62 10.226 0.242 12.020-0.594 1.204 1.486 3.447 4.546 2.614 5.966-1.115 1.904-3.383 0.815-3.383 0.815-4.588 0.044-4.331 1.453-4.331 1.453 1.217-0.815 4.805 0 4.805 0-3.114 0-4.434 1.090-4.434 1.090 2.319-0.495 4.908 1.629 4.908 1.629 0.948 4.172 5.331 2.4 5.331 2.4-2.742 0.407-2.012-2.091-2.012-2.091 3.434-1.046 3.114-2.719 3.114-2.719-1.115 1.31-2.063 1.409-2.063 1.409 3.075-3.709 0.243-8.85-0.718-10.358 1.743-1.046 5.267-2.917 6.894-2.213 2.217 0.958 0.948 2.906 0.948 2.906 0.051 3.941 1.691 3.721 1.691 3.721-0.948-1.046 0-4.128 0-4.128 0 2.675 1.269 3.809 1.269 3.809-0.577-1.992 1.897-4.216 1.897-4.216 4.882-0.804 2.819-4.568 2.819-4.568z"></path>
</symbol>
<symbol id="icon-Logo_text" viewBox="0 0 53 32">
<path d="M0 0h1.605v19.064h4.794v-19.064h1.605v32h-1.605v-11.33h-4.794v11.33h-1.605v-32z"></path>
<path d="M19.875 0l-3.98 20.67v11.33h-1.605v-11.33l-4.002-20.67h1.47l3.347 17.232 3.324-17.232h1.447z"></path>
<path d="M26.975 32h-4.816v-32h4.794c1.786 0 3.188 1.425 3.188 3.189v25.6c0.023 1.741-1.402 3.211-3.166 3.211zM23.765 1.606v28.789h3.188c0.859 0 1.605-0.724 1.605-1.606v-25.6c0-0.859-0.724-1.606-1.605-1.606h-3.188v0.023z"></path>
<path d="M40.678 32h-1.651l-2.826-11.33h-1.922v11.33h-1.605v-32h4.794c1.786 0 3.188 1.425 3.188 3.189v14.27c0 1.606-1.244 2.963-2.826 3.144l2.849 11.398zM34.279 19.064h3.188c0.859 0 1.605-0.724 1.605-1.606v-14.27c0-0.859-0.724-1.606-1.605-1.606h-3.188v17.481z"></path>
<path d="M45.517 20.67l-1.108 11.33h-1.447l3.211-32h3.188l3.188 32h-1.447l-1.108-11.33h-4.477zM48.072 1.606h-0.633l-1.741 17.459h4.115l-1.741-17.459z"></path>
</symbol>
</defs>
</svg>
